<svg width="18" height="19" viewBox="0 0 18 19" fill="none" xmlns="http://www.w3.org/2000/svg">
<path d="M14.4053 3.71967C14.1124 3.42678 13.6376 3.42678 13.3447 3.71967C13.0518 4.01257 13.0518 4.48743 13.3447 4.78033L13.9457 5.38142C11.0889 5.50287 9.31883 7.32413 7.77623 8.9114L7.71225 8.97718C6.04262 10.6945 4.61008 12.125 2.25 12.125C1.83579 12.125 1.5 12.4608 1.5 12.875C1.5 13.2892 1.83579 13.625 2.25 13.625C5.2868 13.625 7.12711 11.7315 8.72377 10.0886L8.78775 10.0228C10.3807 8.38438 11.7578 7.00708 13.9304 6.88395L13.3447 7.46967C13.0518 7.76256 13.0518 8.23745 13.3447 8.53033C13.6376 8.8232 14.1124 8.8232 14.4053 8.53033L16.2803 6.65533C16.4209 6.51467 16.5 6.32391 16.5 6.12499C16.5 5.92609 16.4209 5.73532 16.2803 5.59466L14.4053 3.71967ZM2.25 5.37518C4.67148 5.37518 6.33221 6.57909 7.71532 7.89985C7.56765 8.0495 7.42427 8.1971 7.28468 8.34088L7.17449 8.45428C6.99998 8.63382 6.83048 8.80723 6.66463 8.97403C5.38911 7.76035 4.10653 6.87518 2.25 6.87518C1.83579 6.87518 1.5 6.5394 1.5 6.12518C1.5 5.71097 1.83579 5.37518 2.25 5.37518ZM13.9457 13.6186C11.6879 13.5226 10.1089 12.3649 8.78452 11.1001C8.93227 10.9504 9.07568 10.8028 9.21532 10.6589L9.3255 10.5455C9.49995 10.3661 9.66937 10.1927 9.8352 10.0261C11.0363 11.1688 12.2435 12.0205 13.9304 12.1161L13.3447 11.5303C13.0518 11.2375 13.0518 10.7626 13.3447 10.4697C13.6376 10.1768 14.1124 10.1768 14.4053 10.4697L16.2803 12.3447C16.4209 12.4853 16.5 12.6761 16.5 12.875C16.5 13.0739 16.4209 13.2647 16.2803 13.4053L14.4053 15.2803C14.1124 15.5732 13.6376 15.5732 13.3447 15.2803C13.0518 14.9875 13.0518 14.5126 13.3447 14.2197L13.9457 13.6186Z" fill="#7C7C7C"/>
</svg>
