<svg width="18" height="19" viewBox="0 0 18 19" fill="none" xmlns="http://www.w3.org/2000/svg">
<path d="M15.375 13.1965V8C15.375 5.17157 15.375 3.75736 14.4963 2.87868C13.6177 2 12.2034 2 9.375 2H8.625C5.79657 2 4.38236 2 3.50368 2.87868C2.625 3.75736 2.625 5.17157 2.625 8V15.125" stroke="#7C7C7C" stroke-width="1.5" stroke-linecap="round"/>
<path d="M15.375 13.25H4.5C3.46447 13.25 2.625 14.0895 2.625 15.125C2.625 16.1605 3.46447 17 4.5 17H15.375" stroke="#7C7C7C" stroke-width="1.5" stroke-linecap="round"/>
<path d="M15.375 17C14.3395 17 13.5 16.1605 13.5 15.125C13.5 14.0895 14.3395 13.25 15.375 13.25" stroke="#7C7C7C" stroke-width="1.5" stroke-linecap="round"/>
<path d="M11.25 5.75H6.75" stroke="#7C7C7C" stroke-width="1.5" stroke-linecap="round" stroke-linejoin="round"/>
<path d="M9 8.75H6.75" stroke="#7C7C7C" stroke-width="1.5" stroke-linecap="round" stroke-linejoin="round"/>
</svg>
