<svg width="18" height="19" viewBox="0 0 18 19" fill="none" xmlns="http://www.w3.org/2000/svg">
<path d="M1.875 9.5C1.875 6.14125 1.875 4.46187 2.91843 3.41843C3.96187 2.375 5.64125 2.375 9 2.375C12.3587 2.375 14.0381 2.375 15.0816 3.41843C16.125 4.46187 16.125 6.14125 16.125 9.5C16.125 12.8587 16.125 14.5381 15.0816 15.5816C14.0381 16.625 12.3587 16.625 9 16.625C5.64125 16.625 3.96187 16.625 2.91843 15.5816C1.875 14.5381 1.875 12.8587 1.875 9.5Z" stroke="#7C7C7C" stroke-width="1.5"/>
<path d="M1.875 7.25H16.125" stroke="#7C7C7C" stroke-width="1.5" stroke-linejoin="round"/>
<path d="M5.25 5H5.25599" stroke="#7C7C7C" stroke-width="2" stroke-linecap="round" stroke-linejoin="round"/>
<path d="M8.25 5H8.256" stroke="#7C7C7C" stroke-width="2" stroke-linecap="round" stroke-linejoin="round"/>
</svg>
