<svg width="18" height="19" viewBox="0 0 18 19" fill="none" xmlns="http://www.w3.org/2000/svg">
<path d="M2.25991 4.24313C2.17002 5.03813 2.66446 6.81714 4.86702 6.81714" stroke="#7C7C7C" stroke-width="1.5" stroke-linecap="round"/>
<path d="M13.1963 6.78561C14.1267 6.93411 15.8349 6.12411 15.7467 4.25211" stroke="#7C7C7C" stroke-width="1.5" stroke-linecap="round"/>
<path d="M15.7446 16.2492C15.7896 15.4572 15.1332 13.6662 13.1992 13.5672" stroke="#7C7C7C" stroke-width="1.5" stroke-linecap="round"/>
<path d="M4.83869 13.6031C4.23757 13.4231 2.25977 14.2511 2.25977 16.2491" stroke="#7C7C7C" stroke-width="1.5" stroke-linecap="round"/>
<path d="M6.9974 5.08913C7.01538 4.32413 7.38397 2.74913 9.00215 2.74913C10.4406 2.74913 10.9395 3.96413 11.007 5.08913M4.69595 7.56413C4.78586 6.97913 5.46909 5.61113 7.02437 5.47613C8.5976 5.41673 10.7552 5.44013 11.1597 5.50313C11.6901 5.55033 12.9713 6.07913 13.3129 7.56413C13.4343 8.3291 13.3713 9.4091 13.3893 10.0391C13.3623 10.6691 13.4405 11.9467 13.3173 12.6041C13.2275 13.3241 12.742 14.3501 12.0768 14.9801C11.0878 16.0421 8.3729 17.1581 6.02648 15.0881C4.81282 13.9181 4.73191 12.7841 4.64201 12.3341C4.61791 12.0928 4.61903 10.9072 4.62403 9.7691C4.60605 8.7845 4.62923 7.83547 4.69595 7.56413Z" stroke="#7C7C7C" stroke-width="1.5"/>
<path d="M2.25977 10.1741H4.46232" stroke="#7C7C7C" stroke-width="1.5" stroke-linecap="round"/>
<path d="M15.7445 10.1741H13.5869" stroke="#7C7C7C" stroke-width="1.5" stroke-linecap="round"/>
<path d="M9.00244 12.8741V15.7091" stroke="#7C7C7C" stroke-width="1.5" stroke-linecap="round"/>
</svg>
