<svg width="20" height="20" viewBox="0 0 20 20" fill="none" xmlns="http://www.w3.org/2000/svg">
<path d="M3.14785 9.95201C2.35784 8.57442 1.97638 7.44957 1.74637 6.30935C1.40619 4.62299 2.18468 2.97568 3.47432 1.92456C4.01938 1.48032 4.6442 1.63211 4.9665 2.21034L5.69415 3.51577C6.27091 4.55048 6.55929 5.06783 6.50209 5.61633C6.4449 6.16483 6.05598 6.61156 5.27815 7.50502L3.14785 9.95201ZM3.14785 9.95201C4.74693 12.7403 7.25637 15.2511 10.0478 16.852M10.0478 16.852C11.4254 17.642 12.5503 18.0235 13.6905 18.2535C15.3768 18.5937 17.0242 17.8152 18.0753 16.5255C18.5195 15.9805 18.3678 15.3557 17.7895 15.0333L16.4841 14.3057C15.4493 13.7289 14.932 13.4406 14.3835 13.4978C13.835 13.5549 13.3883 13.9438 12.4948 14.7217L10.0478 16.852Z" stroke="#17A2B8" stroke-width="1.5" stroke-linejoin="round"/>
</svg>
