<svg width="20" height="20" viewBox="0 0 20 20" fill="none" xmlns="http://www.w3.org/2000/svg">
<path d="M6.6665 10H6.67398M9.99614 10H10.0036M13.3257 10H13.3331" stroke="#17A2B8" stroke-width="2" stroke-linecap="round" stroke-linejoin="round"/>
<path d="M15 17.5C16.0268 17.5 16.8592 16.5406 16.8592 15.3572C16.8592 13.484 16.776 12.2387 18.0611 10.7576C18.4241 10.3392 18.4241 9.66075 18.0611 9.24234C16.776 7.76128 16.8592 6.51595 16.8592 4.64284C16.8592 3.45938 16.0268 2.49998 15 2.49998" stroke="#17A2B8" stroke-width="1.5" stroke-linecap="round" stroke-linejoin="round"/>
<path d="M4.99984 17.5C3.97304 17.5 3.14065 16.5406 3.14065 15.3572C3.14065 13.484 3.22381 12.2387 1.93878 10.7576C1.57575 10.3392 1.57575 9.66075 1.93878 9.24234C3.19564 7.79374 3.14065 6.53325 3.14065 4.64284C3.14065 3.45938 3.97304 2.49998 4.99984 2.49998" stroke="#17A2B8" stroke-width="1.5" stroke-linecap="round" stroke-linejoin="round"/>
</svg>
