<svg width="18" height="19" viewBox="0 0 18 19" fill="none" xmlns="http://www.w3.org/2000/svg">
<path d="M6 13.25H12" stroke="#7C7C7C" stroke-width="1.5" stroke-linecap="round" stroke-linejoin="round"/>
<path d="M6 10.25H9" stroke="#7C7C7C" stroke-width="1.5" stroke-linecap="round" stroke-linejoin="round"/>
<path d="M9.75 2.375V2.75C9.75 4.87132 9.75 5.93198 10.409 6.59099C11.0681 7.25 12.1287 7.25 14.25 7.25H14.625M15 8.49267V11C15 13.8284 15 15.2427 14.1213 16.1213C13.2427 17 11.8284 17 9 17C6.17157 17 4.75736 17 3.87868 16.1213C3 15.2427 3 13.8284 3 11V7.59188C3 5.15811 3 3.94123 3.66455 3.117C3.79881 2.95048 3.95048 2.79881 4.117 2.66455C4.94123 2 6.15812 2 8.59185 2C9.12105 2 9.38558 2 9.6279 2.08551C9.6783 2.10329 9.72765 2.12375 9.77588 2.14681C10.0077 2.25766 10.1948 2.44475 10.5689 2.81891L14.1213 6.37132C14.5549 6.80487 14.7716 7.02164 14.8859 7.29729C15 7.57295 15 7.87951 15 8.49267Z" stroke="#7C7C7C" stroke-width="1.5" stroke-linecap="round" stroke-linejoin="round"/>
</svg>
