<svg width="20" height="20" viewBox="0 0 20 20" fill="none" xmlns="http://www.w3.org/2000/svg">
<path d="M10 15V12.5" stroke="#17A2B8" stroke-width="1.5" stroke-linecap="round"/>
<path d="M1.95982 11.0112C1.66563 9.09683 1.51854 8.13969 1.88047 7.29115C2.24238 6.4426 3.04535 5.86202 4.65128 4.70088L5.85115 3.83333C7.8489 2.38889 8.84776 1.66666 10.0003 1.66666C11.1528 1.66666 12.1518 2.38889 14.1495 3.83333L15.3493 4.70088C16.9553 5.86202 17.7583 6.4426 18.1202 7.29115C18.4821 8.13969 18.335 9.09683 18.0408 11.0112L17.79 12.6437C17.3729 15.3574 17.1644 16.7143 16.1912 17.5238C15.2179 18.3333 13.795 18.3333 10.9493 18.3333H9.05134C6.20561 18.3333 4.78275 18.3333 3.80949 17.5238C2.83623 16.7143 2.62772 15.3574 2.21068 12.6437L1.95982 11.0112Z" stroke="#17A2B8" stroke-width="1.5" stroke-linejoin="round"/>
</svg>
