<svg width="18" height="19" viewBox="0 0 18 19" fill="none" xmlns="http://www.w3.org/2000/svg">
<path d="M11.25 13.25C10.6504 13.7168 9.86267 14 9.00002 14C8.13729 14 7.34965 13.7168 6.75 13.25" stroke="#7C7C7C" stroke-width="1.5" stroke-linecap="round"/>
<path d="M1.76354 10.4101C1.49878 8.68715 1.3664 7.82572 1.69213 7.06203C2.01785 6.29834 2.74052 5.77582 4.18585 4.73079L5.26574 3.95C7.06372 2.65 7.96269 2 9.00002 2C10.0373 2 10.9363 2.65 12.7343 3.95L13.8141 4.73079C15.2595 5.77582 15.9821 6.29834 16.3079 7.06203C16.6336 7.82572 16.5012 8.68715 16.2365 10.4101L16.0107 11.8793C15.6353 14.3217 15.4477 15.5429 14.5718 16.2714C13.6958 17 12.4152 17 9.85411 17H8.14591C5.58475 17 4.30418 17 3.42825 16.2714C2.55232 15.5429 2.36465 14.3217 1.98932 11.8793L1.76354 10.4101Z" stroke="#7C7C7C" stroke-width="1.5" stroke-linejoin="round"/>
</svg>
