<svg width="18" height="19" viewBox="0 0 18 19" fill="none" xmlns="http://www.w3.org/2000/svg">
<path d="M7.5 10.4218C7.6062 10.5957 7.73227 10.7603 7.87815 10.9121C8.78377 11.8546 10.1641 12.002 11.2182 11.3542C11.4135 11.2341 11.5975 11.0868 11.7654 10.9121L14.1949 8.38355C15.2683 7.26638 15.2683 5.45507 14.1949 4.33789C13.1215 3.2207 11.3811 3.22071 10.3076 4.33789L9.7725 4.89484" stroke="#7C7C7C" stroke-width="1.5" stroke-linecap="round"/>
<path d="M8.22773 14.105L7.69238 14.6621C6.61895 15.7793 4.87853 15.7793 3.80509 14.6621C2.73164 13.5449 2.73164 11.7336 3.80509 10.6164L6.23465 8.0879C7.3081 6.9707 9.04853 6.9707 10.1219 8.0879C10.2678 8.23962 10.3938 8.40425 10.5 8.5781" stroke="#7C7C7C" stroke-width="1.5" stroke-linecap="round"/>
</svg>
