<svg width="20" height="20" viewBox="0 0 20 20" fill="none" xmlns="http://www.w3.org/2000/svg">
<path d="M5.8335 7.08333L8.28518 8.53283C9.7145 9.37792 10.2858 9.37792 11.7152 8.53283L14.1668 7.08333" stroke="#17A2B8" stroke-width="1.5" stroke-linecap="round" stroke-linejoin="round"/>
<path d="M1.67964 11.2297C1.73412 13.7843 1.76136 15.0616 2.70397 16.0077C3.64658 16.954 4.95845 16.9869 7.5822 17.0528C9.19926 17.0935 10.8004 17.0935 12.4175 17.0528C15.0413 16.9869 16.3531 16.954 17.2957 16.0077C18.2383 15.0616 18.2656 13.7843 18.32 11.2297C18.3376 10.4083 18.3376 9.59167 18.32 8.77033C18.2656 6.21569 18.2383 4.93838 17.2957 3.99219C16.3531 3.046 15.0413 3.01304 12.4175 2.94712C10.8004 2.90648 9.19926 2.90648 7.58219 2.94711C4.95845 3.01303 3.64658 3.04598 2.70397 3.99218C1.76136 4.93838 1.73412 6.21568 1.67964 8.77025C1.66212 9.59167 1.66212 10.4083 1.67964 11.2297Z" stroke="#17A2B8" stroke-width="1.5" stroke-linejoin="round"/>
</svg>
