<svg width="20" height="20" viewBox="0 0 20 20" fill="none" xmlns="http://www.w3.org/2000/svg">
<path d="M6.25 9.99999H11.25M6.25 6.66666H8.75" stroke="#17A2B8" stroke-width="1.5" stroke-linecap="round" stroke-linejoin="round"/>
<path d="M7.0835 16.6667C7.95881 17.3914 9.01225 17.8532 10.2197 17.9323C11.1712 17.9947 12.1644 17.9947 13.1139 17.9323C13.4408 17.9109 13.7972 17.8339 14.1042 17.7092C14.4456 17.5704 14.6164 17.501 14.7032 17.5115C14.79 17.522 14.9159 17.6137 15.1677 17.7969C15.6117 18.12 16.1711 18.3521 17.0006 18.3322C17.42 18.3221 17.6297 18.317 17.7236 18.1591C17.8175 18.0011 17.7006 17.7824 17.4667 17.3451C17.1423 16.7385 16.9368 16.0441 17.2482 15.4877C17.7846 14.6929 18.2401 13.7517 18.3067 12.7352C18.3424 12.1891 18.3424 11.6234 18.3067 11.0772C18.2623 10.3999 18.0979 9.75607 17.8345 9.16666" stroke="#17A2B8" stroke-width="1.5" stroke-linecap="round" stroke-linejoin="round"/>
<path d="M10.2873 14.5723C13.2503 14.3772 15.6105 12.0057 15.8047 9.02866C15.8427 8.44607 15.8427 7.84275 15.8047 7.26015C15.6105 4.28306 13.2503 1.91166 10.2873 1.71653C9.2765 1.64996 8.22111 1.6501 7.21233 1.71653C4.24936 1.91166 1.88921 4.28306 1.695 7.26015C1.657 7.84275 1.657 8.44607 1.695 9.02866C1.76574 10.113 2.24977 11.1169 2.8196 11.9647C3.15047 12.5581 2.93211 13.2988 2.58749 13.9458C2.339 14.4123 2.21476 14.6456 2.31452 14.8141C2.41427 14.9826 2.6371 14.988 3.08276 14.9987C3.9641 15.02 4.5584 14.7724 5.03015 14.4278C5.2977 14.2323 5.43149 14.1346 5.52369 14.1234C5.61589 14.1122 5.79734 14.1862 6.16018 14.3342C6.48629 14.4673 6.86494 14.5494 7.21233 14.5723C8.22111 14.6387 9.2765 14.6388 10.2873 14.5723Z" stroke="#17A2B8" stroke-width="1.5" stroke-linejoin="round"/>
</svg>
