<svg width="18" height="19" viewBox="0 0 18 19" fill="none" xmlns="http://www.w3.org/2000/svg">
<path d="M3.75 5C3.81536 3.93541 3.99472 3.25749 4.48685 2.76885C5.26118 2 6.50746 2 9 2C11.4925 2 12.7388 2 13.5131 2.76885C14.0053 3.25749 14.1846 3.93541 14.25 5M14.25 14C14.1846 15.0645 14.0053 15.7425 13.5131 16.2312C12.7388 17 11.4925 17 9 17C6.50746 17 5.26118 17 4.48685 16.2312C3.99472 15.7425 3.81536 15.0645 3.75 14" stroke="#7C7C7C" stroke-width="1.5" stroke-linecap="round"/>
<path d="M8.25 14.75H9.75" stroke="#7C7C7C" stroke-width="1.5" stroke-linecap="round" stroke-linejoin="round"/>
<path d="M13.125 7.25L14.2749 8.43935C14.7583 8.93938 15 9.18935 15 9.5C15 9.81065 14.7583 10.0606 14.2749 10.5606L13.125 11.75" stroke="#7C7C7C" stroke-width="1.5" stroke-linecap="round" stroke-linejoin="round"/>
<path d="M4.875 7.25L3.72511 8.43935C3.24171 8.93938 3 9.18935 3 9.5C3 9.81065 3.2417 10.0606 3.72511 10.5606L4.875 11.75" stroke="#7C7C7C" stroke-width="1.5" stroke-linecap="round" stroke-linejoin="round"/>
</svg>
