<svg width="18" height="19" viewBox="0 0 18 19" fill="none" xmlns="http://www.w3.org/2000/svg">
<path d="M15.75 5.375C15.75 6.61764 14.7427 7.625 13.5 7.625C12.2573 7.625 11.25 6.61764 11.25 5.375C11.25 4.13236 12.2573 3.125 13.5 3.125C14.7427 3.125 15.75 4.13236 15.75 5.375Z" stroke="#7C7C7C" stroke-width="1.5"/>
<path d="M6.75 9.5C6.75 10.7427 5.74264 11.75 4.5 11.75C3.25736 11.75 2.25 10.7427 2.25 9.5C2.25 8.25732 3.25736 7.25 4.5 7.25C5.74264 7.25 6.75 8.25732 6.75 9.5Z" stroke="#7C7C7C" stroke-width="1.5"/>
<path d="M15.75 13.625C15.75 14.8677 14.7427 15.875 13.5 15.875C12.2573 15.875 11.25 14.8677 11.25 13.625C11.25 12.3823 12.2573 11.375 13.5 11.375C14.7427 11.375 15.75 12.3823 15.75 13.625Z" stroke="#7C7C7C" stroke-width="1.5"/>
<path d="M6.54639 8.56213L11.4214 6.3125M6.54639 10.4375L11.4214 12.6871" stroke="#7C7C7C" stroke-width="1.5"/>
</svg>
