<svg width="18" height="19" viewBox="0 0 18 19" fill="none" xmlns="http://www.w3.org/2000/svg">
<path d="M12.6213 5.79675C13.5 6.59352 13.5 7.87588 13.5 10.4406V11.5594C13.5 14.1241 13.5 15.4065 12.6213 16.2033C11.7427 17 10.3284 17 7.5 17C4.67157 17 3.25736 17 2.37868 16.2033C1.5 15.4065 1.5 14.1241 1.5 11.5594V10.4406C1.5 7.87588 1.5 6.59352 2.37868 5.79675C3.25736 5 4.67157 5 7.5 5C10.3284 5 11.7427 5 12.6213 5.79675Z" stroke="#7C7C7C" stroke-width="1.5" stroke-linecap="round" stroke-linejoin="round"/>
<path d="M4.5498 5C4.63008 3.9591 4.83825 3.28628 5.3781 2.79676C6.25677 2 7.671 2 10.4994 2C13.3279 2 14.7421 2 15.6208 2.79676C16.4994 3.59352 16.4994 4.87588 16.4994 7.4406V8.55943C16.4994 11.1241 16.4994 12.4065 15.6208 13.2033C15.1309 13.6474 14.4745 13.844 13.4994 13.931" stroke="#7C7C7C" stroke-width="1.5" stroke-linecap="round" stroke-linejoin="round"/>
<path d="M8.01832 8.43327L8.54625 9.4979C8.61825 9.64602 8.81017 9.78822 8.97217 9.81545L9.9291 9.97572C10.541 10.0785 10.685 10.5261 10.244 10.9677L9.5001 11.7178C9.37417 11.8449 9.30517 12.0898 9.34417 12.2652L9.5571 13.1937C9.7251 13.9287 9.33817 14.213 8.69325 13.8288L7.79632 13.2936C7.63432 13.1967 7.36736 13.1967 7.20238 13.2936L6.30548 13.8288C5.66355 14.213 5.27359 13.9257 5.44157 13.1937L5.65455 12.2652C5.69355 12.0898 5.62456 11.8449 5.49857 11.7178L4.75465 10.9677C4.3167 10.5261 4.45768 10.0785 5.06962 9.97572L6.02651 9.81545C6.18549 9.78822 6.37747 9.64602 6.44947 9.4979L6.97741 8.43327C7.26538 7.85558 7.73332 7.85558 8.01832 8.43327Z" stroke="#7C7C7C" stroke-width="1.5" stroke-linecap="round" stroke-linejoin="round"/>
</svg>
