<svg width="18" height="19" viewBox="0 0 18 19" fill="none" xmlns="http://www.w3.org/2000/svg">
<path d="M10.5 14.75L8.33018 8.56092C7.32261 5.68698 6.81883 4.25 6 4.25C5.18117 4.25 4.67739 5.68698 3.66982 8.56092L1.5 14.75M3.375 9.5H8.625" stroke="#7C7C7C" stroke-width="1.5" stroke-linecap="round" stroke-linejoin="round"/>
<path d="M16.4769 10.9544V14.3294M16.4769 10.9544C16.5123 10.3371 16.5137 9.86682 16.4396 9.48297C16.2648 8.57817 15.3194 8.03292 14.4045 7.92199C13.5289 7.81585 12.8261 8.04125 12.1151 9.07722M16.4769 10.9544H14.3442C14.0165 10.9544 13.6861 10.9702 13.3704 11.058C11.4409 11.5944 11.5823 14.3002 13.5175 14.6337C13.7324 14.6708 13.9519 14.6867 14.1695 14.6769C14.6777 14.6543 15.1466 14.4087 15.5491 14.0976C16.0204 13.733 16.4769 13.2241 16.4769 12.4544V10.9544Z" stroke="#7C7C7C" stroke-width="1.5" stroke-linecap="round" stroke-linejoin="round"/>
</svg>
