<svg width="18" height="19" viewBox="0 0 18 19" fill="none" xmlns="http://www.w3.org/2000/svg">
<path d="M9.375 17H4.94315C3.78412 17 2.86223 16.436 2.0345 15.6475C0.340025 14.0331 3.1221 12.743 4.18318 12.1112C5.87025 11.1067 7.86488 10.7832 9.75 11.1409" stroke="#7C7C7C" stroke-width="1.5" stroke-linecap="round" stroke-linejoin="round"/>
<path d="M11.625 5.375C11.625 7.23896 10.114 8.75 8.25 8.75C6.38604 8.75 4.875 7.23896 4.875 5.375C4.875 3.51104 6.38604 2 8.25 2C10.114 2 11.625 3.51104 11.625 5.375Z" stroke="#7C7C7C" stroke-width="1.5"/>
<path d="M14.0183 11.4333L14.5463 12.4979C14.6183 12.646 14.8102 12.7882 14.9722 12.8155L15.9291 12.9757C16.541 13.0786 16.685 13.5262 16.244 13.9678L15.5001 14.7178C15.3742 14.8449 15.3052 15.0898 15.3442 15.2653L15.5571 16.1938C15.7251 16.9287 15.3382 17.213 14.6933 16.8289L13.7963 16.2936C13.6343 16.1968 13.3674 16.1968 13.2024 16.2936L12.3055 16.8289C11.6636 17.213 11.2736 16.9257 11.4416 16.1938L11.6546 15.2653C11.6936 15.0898 11.6246 14.8449 11.4986 14.7178L10.7546 13.9678C10.3167 13.5262 10.4577 13.0786 11.0696 12.9757L12.0265 12.8155C12.1855 12.7882 12.3775 12.646 12.4495 12.4979L12.9774 11.4333C13.2654 10.8556 13.7333 10.8556 14.0183 11.4333Z" stroke="#7C7C7C" stroke-width="1.5" stroke-linecap="round" stroke-linejoin="round"/>
</svg>
