<svg width="18" height="19" viewBox="0 0 18 19" fill="none" xmlns="http://www.w3.org/2000/svg">
<path d="M4.63505 11.9723C3.69187 12.5251 1.21891 13.6539 2.72511 15.0665C3.46088 15.7565 4.28033 16.25 5.31058 16.25H11.1894C12.2197 16.25 13.0391 15.7565 13.7749 15.0665C15.2811 13.6539 12.8081 12.5251 11.8649 11.9723C9.65318 10.6759 6.8468 10.6759 4.63505 11.9723Z" stroke="#7C7C7C" stroke-width="1.125" stroke-linecap="round" stroke-linejoin="round"/>
<path d="M11.25 5.75C11.25 7.40686 9.90683 8.75 8.25 8.75C6.59314 8.75 5.25 7.40686 5.25 5.75C5.25 4.09314 6.59314 2.75 8.25 2.75C9.90683 2.75 11.25 4.09314 11.25 5.75Z" stroke="#7C7C7C" stroke-width="1.125"/>
<path d="M13.5 4.65384C13.5 4.01659 14.0037 3.5 14.625 3.5C15.2463 3.5 15.75 4.01659 15.75 4.65384C15.75 4.88355 15.6845 5.09758 15.5717 5.27738C15.2356 5.81327 14.625 6.32429 14.625 6.96154V7.25" stroke="#7C7C7C" stroke-width="1.125" stroke-linecap="round"/>
<path d="M14.625 8.75H14.6318" stroke="#7C7C7C" stroke-width="1.125" stroke-linecap="round" stroke-linejoin="round"/>
</svg>
