<svg width="18" height="19" viewBox="0 0 18 19" fill="none" xmlns="http://www.w3.org/2000/svg">
<path d="M15.5805 14C16.1425 14 16.5895 13.6464 16.9908 13.1518C17.8124 12.1396 16.4635 11.3306 15.949 10.9344C15.426 10.5317 14.842 10.3036 14.25 10.25M13.5 8.75C14.5355 8.75 15.375 7.91053 15.375 6.875C15.375 5.83947 14.5355 5 13.5 5" stroke="#7C7C7C" stroke-width="1.5" stroke-linecap="round"/>
<path d="M2.41947 14C1.85749 14 1.4105 13.6464 1.00916 13.1518C0.187568 12.1396 1.5365 11.3306 2.05098 10.9344C2.57398 10.5317 3.15794 10.3036 3.75 10.25M4.125 8.75C3.08947 8.75 2.25 7.91053 2.25 6.875C2.25 5.83947 3.08947 5 4.125 5" stroke="#7C7C7C" stroke-width="1.5" stroke-linecap="round"/>
<path d="M6.06285 11.8334C5.29652 12.3073 3.28724 13.2748 4.51103 14.4855C5.10884 15.077 5.77464 15.5 6.61172 15.5H11.3883C12.2254 15.5 12.8912 15.077 13.489 14.4855C14.7128 13.2748 12.7035 12.3073 11.9372 11.8334C10.1401 10.7222 7.85987 10.7222 6.06285 11.8334Z" stroke="#7C7C7C" stroke-width="1.5" stroke-linecap="round" stroke-linejoin="round"/>
<path d="M11.625 6.125C11.625 7.57475 10.4498 8.75 9.00001 8.75C7.55026 8.75 6.375 7.57475 6.375 6.125C6.375 4.67525 7.55026 3.5 9.00001 3.5C10.4498 3.5 11.625 4.67525 11.625 6.125Z" stroke="#7C7C7C" stroke-width="1.5"/>
</svg>
